<svg xmlns="http://www.w3.org/2000/svg" x="0px" y="0px"
     width="48" height="48"
     viewBox="0 0 252 252"
     style="fill:#000000;"><g fill="none" fill-rule="nonzero" stroke="none" stroke-width="1" stroke-linecap="butt" stroke-linejoin="miter" stroke-miterlimit="10" stroke-dasharray="" stroke-dashoffset="0" font-family="none" font-weight="none" font-size="none" text-anchor="none" style="mix-blend-mode: normal"><path d="M0,252v-252h252v252z" fill="none"></path><g id="Layer_1"><g><g fill="#3498db"><path d="M218.1375,57.88125l-180.73125,48.43125l-5.11875,-19.09688c-2.75625,-10.43437 3.34688,-21.2625 13.97813,-24.01875l142.5375,-38.19375c10.43437,-2.75625 21.2625,3.34688 24.01875,13.97813z"></path></g><g fill="#ffffff"><path d="M216.36563,58.275l-48.0375,-27.75938l-18.50625,4.92188c0.59063,1.96875 1.77188,3.74062 3.74063,4.725l41.34375,23.82188l-35.4375,9.45l-48.23437,-27.5625l-18.30937,4.92188c0.59062,1.96875 1.77187,3.74062 3.74062,4.725l41.34375,23.82187l-35.4375,9.45l-48.43125,-27.75937l-7.875,2.16563c-3.54375,0.98438 -6.69375,2.95313 -9.25312,5.5125c0.59063,0.7875 1.37812,1.575 2.3625,2.16563l41.34375,23.82188z"></path></g><g fill="#ffffff"><path d="M224.4375,106.3125h-187.03125v118.125c0,10.82813 8.85938,19.6875 19.6875,19.6875h147.65625c10.82813,0 19.6875,-8.85937 19.6875,-19.6875z"></path></g><g><g fill="#3498db"><rect x="19" y="54" transform="scale(1.96875,1.96875)" width="95" height="20"></rect></g><g fill="#ffffff"><path d="M183.4875,145.6875l39.375,-39.375h-22.24687l-39.375,39.375h-36.81563l39.375,-39.375h-22.44375l-39.375,39.375h-36.61875l39.375,-39.375h-22.44375l-39.375,39.375h-5.5125v5.5125v2.3625v0v11.41875v59.45625c0,10.82813 8.85938,19.6875 19.6875,19.6875h147.65625c10.82813,0 19.6875,-8.85937 19.6875,-19.6875v-78.75z"></path></g><g fill="#ffffff"><g><path d="M224.04375,106.70625l-0.39375,-0.39375h-13.97812c5.31563,0 18.1125,3.9375 14.37187,0.39375z"></path></g></g><g fill="#3498db"><path d="M204.75,250.03125h-147.65625c-14.175,0 -25.59375,-11.41875 -25.59375,-25.59375v-103.35937c0,-3.34688 2.55938,-5.90625 5.90625,-5.90625c3.34687,0 5.90625,2.55937 5.90625,5.90625v103.35938c0,7.67813 6.10313,13.78125 13.78125,13.78125h147.65625c7.67813,0 13.78125,-6.10312 13.78125,-13.78125v-112.21875h-165.375c-3.34687,0 -5.90625,-2.55937 -5.90625,-5.90625c0,-3.34688 2.55938,-5.90625 5.90625,-5.90625h171.28125c3.34688,0 5.90625,2.55937 5.90625,5.90625v118.125c0,14.175 -11.41875,25.59375 -25.59375,25.59375z"></path></g></g><g fill="#3498db"><path d="M37.40625,112.21875c-2.55938,0 -4.92187,-1.77187 -5.70937,-4.33125l-5.11875,-19.09687c-3.74063,-13.58437 4.52812,-27.75938 18.1125,-31.30312l142.73438,-38.19375c13.58437,-3.74063 27.75937,4.52812 31.30312,18.1125l5.11875,19.09687c0.39375,1.575 0.19687,3.15 -0.59062,4.52813c-0.7875,1.37812 -2.16563,2.3625 -3.54375,2.75625l-180.73125,48.23438c-0.59063,0.19688 -0.98437,0.19688 -1.575,0.19688zM193.92188,30.12188c-1.18125,0 -2.3625,0.19687 -3.54375,0.39375l-142.5375,38.39063c-7.28437,1.96875 -11.61563,9.45 -9.64688,16.93125l3.54375,13.3875l169.3125,-45.28125l-3.54375,-13.3875c-1.96875,-6.3 -7.48125,-10.43437 -13.58438,-10.43437z"></path></g><g fill="#ffffff"><circle cx="19" cy="54" transform="scale(1.96875,1.96875)" r="8"></circle></g><g fill="#3498db"><path d="M37.40625,127.96875c-12.00937,0 -21.65625,-9.64687 -21.65625,-21.65625c0,-12.00938 9.64688,-21.65625 21.65625,-21.65625c12.00938,0 21.65625,9.64687 21.65625,21.65625c0,12.00938 -9.64687,21.65625 -21.65625,21.65625zM37.40625,96.46875c-5.5125,0 -9.84375,4.33125 -9.84375,9.84375c0,5.5125 4.33125,9.84375 9.84375,9.84375c5.5125,0 9.84375,-4.33125 9.84375,-9.84375c0,-5.5125 -4.33125,-9.84375 -9.84375,-9.84375z"></path></g></g></g></g></svg>